<?xml version="1.0" standalone="no"?>
<!DOCTYPE svg PUBLIC "-//W3C//DTD SVG 20010904//EN"
 "http://www.w3.org/TR/2001/REC-SVG-20010904/DTD/svg10.dtd">
<svg version="1.0" xmlns="http://www.w3.org/2000/svg"
 width="16.000000pt" height="16.000000pt" viewBox="0 0 16.000000 16.000000"
 preserveAspectRatio="xMidYMid meet">
<metadata>
Created by potrace 1.11, written by Peter Selinger 2001-2013
</metadata>
<g transform="translate(0.000000,16.000000) scale(0.003125,-0.003125)"
fill="#000000" stroke="none">
<path d="M2085 5101 c-56 -14 -71 -22 -73 -38 -2 -15 -13 -23 -35 -27 -18 -3
-60 -19 -94 -35 -52 -25 -61 -33 -56 -50 7 -26 -17 -36 -127 -51 -45 -6 -93
-16 -107 -21 -23 -9 -25 -8 -13 6 12 14 10 15 -16 9 -54 -13 -69 -22 -153 -88
-45 -36 -88 -66 -95 -66 -6 0 -28 -9 -49 -20 -21 -11 -48 -21 -61 -22 -14 -1
-23 -5 -21 -9 8 -11 -54 -49 -70 -43 -12 5 -13 9 -4 20 6 8 18 14 27 14 27 0
4 12 -32 17 -37 5 -45 -4 -24 -25 10 -10 10 -14 0 -21 -9 -6 -8 -12 7 -25 16
-15 18 -23 10 -38 -5 -10 -14 -16 -18 -13 -5 2 -25 -8 -45 -24 -23 -18 -44
-27 -56 -24 -11 3 -20 0 -20 -6 0 -6 -16 -33 -35 -60 -19 -26 -38 -62 -41 -79
-4 -18 -14 -34 -25 -37 -11 -4 -27 -17 -35 -31 -13 -19 -20 -22 -34 -14 -26
14 -26 14 -28 -32 -2 -26 -9 -48 -19 -55 -22 -17 -30 -16 -50 5 -17 16 -19 14
-45 -51 -16 -38 -28 -75 -28 -83 0 -8 -7 -14 -16 -12 -12 2 -21 -10 -31 -39
-10 -29 -21 -43 -38 -47 -36 -9 -107 -96 -192 -234 -42 -70 -93 -149 -112
-177 -20 -30 -29 -51 -22 -53 17 -6 14 -16 -18 -53 -24 -27 -27 -36 -18 -48
10 -12 7 -13 -19 -9 -18 2 -31 0 -31 -7 0 -5 -12 -38 -27 -72 -19 -42 -27 -73
-24 -97 4 -35 4 -35 -17 -18 -11 9 -17 13 -13 8 4 -5 2 -18 -4 -30 -11 -20
-11 -20 -19 -1 -6 16 -8 12 -8 -15 -1 -41 21 -71 66 -94 31 -16 32 -17 18 -48
-11 -28 -11 -37 1 -60 16 -30 6 -43 -25 -33 -16 5 -21 -2 -30 -45 -13 -62 -14
-127 -2 -134 7 -5 7 -131 0 -173 -4 -27 3 -53 15 -53 24 0 27 -34 11 -115 -11
-51 -13 -86 -7 -104 4 -14 5 -43 2 -64 -7 -37 -6 -39 16 -34 40 7 48 -15 31
-82 -9 -33 -14 -68 -12 -78 2 -10 4 -24 4 -32 1 -11 4 -11 17 0 15 12 16 11 9
-11 -4 -14 -25 -52 -46 -86 -22 -34 -39 -67 -39 -74 0 -10 -3 -10 -15 0 -12
10 -15 10 -15 -3 0 -36 11 -46 42 -40 20 4 33 1 39 -8 13 -21 12 -24 -21 -36
-26 -10 -30 -16 -26 -38 5 -29 22 -58 53 -90 33 -35 73 -99 73 -117 0 -20 11
-23 26 -8 18 18 41 -21 53 -93 14 -82 28 -115 53 -122 10 -4 18 -10 18 -15 0
-5 -8 -7 -17 -4 -16 5 -16 4 1 -6 10 -7 38 -32 63 -57 25 -24 56 -51 70 -60
18 -12 23 -22 18 -40 -6 -26 14 -70 42 -93 122 -99 125 -103 119 -132 -5 -24
2 -36 44 -81 27 -28 50 -57 50 -62 0 -15 35 -43 75 -59 38 -16 37 -16 61 -16
12 0 14 -3 6 -13 -9 -10 -1 -23 30 -56 23 -23 54 -49 69 -56 23 -13 40 -17
109 -30 8 -1 14 -10 12 -20 -2 -12 22 -42 70 -87 77 -73 135 -112 181 -123 15
-4 27 -11 27 -15 0 -5 10 -12 23 -16 12 -3 66 -35 120 -71 54 -35 110 -69 125
-75 38 -15 81 -12 102 7 10 9 36 18 57 20 21 1 45 4 53 4 11 1 10 5 -5 13 -11
6 -22 12 -24 14 -2 2 11 17 28 33 31 29 34 30 57 15 13 -9 24 -20 24 -25 0
-21 -2 -24 -16 -21 -17 4 -19 -22 -1 -35 6 -6 35 -18 62 -28 28 -10 55 -24 61
-32 9 -11 189 -50 324 -70 19 -2 126 -7 238 -10 l202 -5 -10 26 c-5 14 -6 26
-2 27 57 7 72 5 83 -7 9 -11 8 -15 -5 -20 -17 -6 -22 -24 -7 -24 5 0 25 16 46
35 32 29 41 32 58 23 20 -11 20 -11 -7 -34 l-27 -24 25 2 c13 1 23 5 21 9 -3
3 8 18 24 33 35 34 97 46 114 22 11 -15 17 -15 81 0 l68 17 -28 15 c-26 14
-27 15 -9 28 10 8 22 14 27 14 4 0 8 6 8 14 0 9 15 14 49 14 58 2 111 19 244
78 53 24 101 44 106 44 5 0 19 12 30 26 11 14 49 45 86 68 46 31 61 45 50 50
-19 7 -19 30 0 46 12 10 18 8 33 -10 l18 -22 59 22 c33 12 72 25 86 28 16 4
47 32 75 66 46 55 47 59 29 72 -12 9 -14 14 -5 14 7 0 21 -7 30 -15 22 -20 38
-13 75 33 16 21 65 67 108 102 43 36 106 94 139 129 l60 64 -22 17 c-27 20
-21 35 17 43 16 3 40 10 55 16 26 10 27 12 16 42 -9 28 -8 34 7 46 11 7 13 13
7 13 -14 0 -16 27 -3 32 5 2 31 33 59 70 79 104 123 205 243 553 28 83 69 185
90 227 25 51 34 75 24 72 -10 -4 -15 0 -15 15 0 14 -6 21 -18 21 -31 0 -31 8
5 76 26 48 32 69 24 77 -6 6 -11 37 -11 68 0 61 -7 89 -21 89 -4 0 -6 -7 -3
-15 5 -11 0 -14 -19 -13 -25 2 -97 -30 -97 -43 0 -4 -20 -13 -45 -20 -39 -12
-44 -16 -39 -36 4 -16 -4 -39 -27 -75 -28 -43 -34 -62 -34 -105 0 -48 -7 -65
-18 -45 -2 4 -2 0 1 -8 9 -30 9 -55 -1 -75 -6 -11 -23 -56 -38 -99 -27 -74
-132 -267 -151 -274 -17 -7 -7 -20 12 -15 27 7 25 -12 -3 -32 -17 -12 -19 -17
-8 -24 10 -7 5 -23 -28 -79 -42 -73 -72 -102 -103 -102 -22 0 -24 -26 -3 -34
20 -7 19 -26 -1 -26 -10 0 -14 -6 -10 -15 6 -18 -31 -46 -51 -38 -9 4 -13 14
-10 25 5 19 5 19 -15 1 -11 -10 -29 -36 -40 -57 -17 -32 -17 -38 -4 -33 13 5
14 3 3 -13 -6 -11 -15 -20 -19 -20 -5 0 -8 -5 -8 -11 0 -11 -28 -46 -128 -158
l-39 -43 -52 27 -53 27 33 28 34 29 -31 1 c-26 0 -33 -5 -38 -26 -4 -15 -2
-32 5 -40 9 -11 9 -21 1 -39 -11 -24 -11 -24 38 -18 28 3 50 4 50 1 0 -15 -40
-48 -58 -48 -15 0 -19 -5 -15 -20 3 -11 0 -26 -6 -34 -6 -7 -9 -20 -6 -28 8
-19 -61 -80 -83 -76 -10 2 -42 -21 -77 -54 -59 -58 -80 -67 -115 -48 -20 11
-32 2 -74 -55 -11 -16 -17 -17 -27 -8 -10 10 -10 15 0 27 7 8 10 20 6 25 -8
14 53 89 85 106 19 10 31 10 44 3 18 -10 17 -12 -10 -23 -29 -13 -29 -13 11
-8 74 10 109 51 46 56 -11 1 -21 3 -21 4 0 14 52 102 69 117 22 20 20 39 -5
29 -8 -3 -28 -17 -43 -32 -65 -60 -65 -60 -138 -63 -23 -1 -41 -7 -40 -13 1
-5 -6 -9 -15 -9 -19 2 -14 -22 8 -30 25 -9 15 -32 -31 -74 -41 -37 -50 -41
-46 -19 2 14 -17 7 -23 -8 -5 -14 -9 -14 -37 0 -18 10 -29 22 -25 30 4 11 -7
12 -52 8 -53 -5 -74 -14 -175 -71 -21 -12 -46 -22 -56 -22 -10 0 -49 -11 -87
-25 -37 -13 -71 -21 -74 -16 -3 5 -19 12 -35 15 -28 6 -28 6 -7 -5 12 -7 22
-15 22 -19 0 -8 -52 -4 -85 6 -19 6 -18 7 4 16 13 4 21 11 18 14 -9 9 -59 -5
-52 -15 6 -11 -42 -25 -75 -22 -14 2 -28 9 -32 16 -8 13 -99 31 -127 26 -8 -1
-17 3 -21 9 -13 20 -80 37 -158 39 -42 1 -79 4 -84 7 -4 3 -8 -3 -8 -14 0 -17
-7 -18 -79 -14 -73 4 -79 3 -84 -17 -7 -29 -27 -26 -94 13 -53 31 -117 78 -84
60 9 -5 12 -3 7 5 -12 19 -61 40 -112 46 -80 10 -118 23 -134 45 -8 11 -19 20
-26 20 -16 0 -45 35 -37 45 5 4 3 5 -4 1 -7 -4 -23 -4 -36 -1 -18 5 -23 12
-20 26 6 22 14 24 31 7 9 -9 12 -8 11 7 0 11 -4 29 -9 40 -9 20 -9 20 -15 -2
-4 -11 -15 -23 -26 -26 -10 -3 -19 -12 -19 -21 0 -9 -8 -16 -20 -16 -11 0 -20
6 -20 13 0 8 -11 19 -24 25 -13 6 -27 19 -30 29 -6 20 -87 53 -129 53 -35 0
-88 51 -80 78 5 19 1 21 -37 19 -35 -2 -44 1 -46 17 -4 29 6 46 30 46 11 0
-12 15 -51 33 -43 19 -71 37 -68 44 2 6 -12 21 -31 32 -26 15 -34 27 -34 48 0
16 -33 86 -74 162 -41 73 -82 161 -91 196 -13 45 -21 62 -31 58 -10 -4 -14 4
-14 30 0 20 -5 39 -10 42 -8 5 -7 11 1 21 6 7 15 11 20 9 4 -3 2 10 -6 29 -8
20 -15 45 -15 58 0 12 -10 32 -22 45 l-21 23 22 0 c20 0 21 2 11 15 -11 14 -7
19 12 16 4 0 5 6 2 13 -8 20 -57 38 -102 38 -36 -1 -39 1 -35 23 3 15 -3 31
-16 44 -24 24 -19 45 9 38 15 -4 17 1 13 32 -8 75 -14 101 -29 115 -13 13 -22
78 -24 157 0 18 -7 28 -21 32 -19 5 -20 10 -14 49 4 24 12 48 17 55 5 6 11 33
13 60 3 26 7 60 11 76 6 24 4 27 -20 27 -36 0 -34 24 9 84 19 27 35 59 35 70
0 17 -2 18 -10 6 -5 -8 -12 -11 -15 -8 -13 12 5 27 80 66 61 32 75 36 77 23 3
-13 7 -11 17 7 11 21 10 24 -18 35 -19 7 -31 19 -31 29 0 14 4 16 24 8 50 -19
67 18 52 116 -3 19 4 49 20 88 5 13 4 17 -3 13 -6 -4 -16 0 -23 7 -14 18 5 50
45 80 33 25 57 69 49 93 -5 16 -4 16 11 -2 16 -19 16 -19 10 7 -4 15 -2 43 5
62 6 19 13 47 14 63 2 15 4 32 5 37 0 4 8 6 16 2 23 -8 60 33 85 94 29 72 47
92 70 80 15 -8 25 -1 55 35 20 25 43 45 51 45 20 0 54 59 54 94 0 22 4 27 16
22 36 -14 124 67 140 127 5 22 11 27 26 24 27 -7 171 47 227 86 25 17 47 30
49 29 1 -1 15 4 30 12 16 8 67 21 114 30 103 18 124 29 139 76 7 19 25 46 42
60 l29 25 -23 6 c-15 3 -22 11 -20 20 2 8 4 24 4 37 -1 17 5 22 26 22 33 0 56
-14 47 -29 -4 -6 -12 -9 -17 -6 -14 9 -11 -2 7 -19 12 -13 28 -15 66 -11 28 4
55 2 62 -4 9 -7 31 -7 72 0 66 11 275 10 362 -2 32 -5 86 -11 121 -15 l63 -6
-6 29 c-7 28 -6 29 28 25 41 -5 54 -27 25 -43 -11 -6 -19 -13 -16 -15 6 -7 61
16 68 28 9 15 39 2 39 -16 0 -9 -11 -18 -25 -22 -14 -4 -23 -9 -20 -12 9 -9
35 -11 35 -3 0 12 54 39 73 36 23 -4 47 -24 47 -39 0 -7 23 -19 51 -28 l50
-17 -6 31 c-7 29 -6 30 19 26 14 -3 27 0 29 6 2 5 14 1 26 -11 13 -12 76 -45
140 -74 64 -28 122 -56 128 -62 7 -5 30 -11 50 -14 21 -3 58 -16 82 -29 l43
-24 17 22 c20 24 46 16 36 -11 -14 -34 -11 -47 27 -94 21 -27 38 -55 38 -63 0
-9 4 -13 9 -9 5 3 31 -6 58 -20 45 -24 48 -25 60 -9 18 25 16 8 -2 -20 -14
-21 -13 -24 31 -56 27 -21 73 -75 114 -135 83 -123 91 -131 119 -113 27 17 30
11 22 -44 -8 -50 -7 -52 37 -50 19 1 26 -8 24 -29 -1 -4 7 -5 17 -2 14 3 20
-2 25 -22 4 -15 47 -109 96 -208 48 -100 98 -213 110 -252 24 -75 35 -232 19
-273 -6 -15 -5 -21 1 -17 6 3 13 0 16 -8 3 -9 16 -14 34 -12 l29 2 -14 -33
c-8 -19 -14 -35 -13 -37 0 -1 -2 -12 -6 -25 -5 -15 -3 -29 7 -40 8 -9 17 -37
20 -61 3 -24 11 -49 18 -55 9 -8 11 -7 6 6 -5 13 0 16 23 16 20 -1 46 11 77
36 26 20 58 39 71 43 19 4 22 10 17 32 -3 14 3 55 13 91 20 69 17 97 -10 130
-16 18 -16 20 -1 20 15 0 15 2 0 18 -8 9 -18 44 -21 77 -3 33 -10 76 -16 95
-10 34 -14 91 -4 60 3 -8 14 -34 26 -58 11 -24 18 -54 15 -68 -2 -13 -1 -24 4
-24 4 0 15 -3 24 -7 21 -7 16 12 -22 94 -13 29 -26 67 -30 84 -6 30 -7 31 -20
14 -13 -18 -13 -18 -14 1 0 10 -2 30 -5 44 -2 14 -6 36 -8 50 -10 61 -30 130
-38 130 -4 0 -8 -4 -8 -10 0 -5 -4 -10 -10 -10 -5 0 -10 16 -10 36 0 27 -4 35
-14 31 -21 -8 -87 135 -89 193 -1 25 -6 48 -12 52 -6 4 -1 8 10 8 18 1 17 2
-5 14 -14 8 -29 11 -35 8 -31 -20 -50 1 -39 44 7 27 14 30 32 12 21 -21 13 5
-14 44 -24 34 -35 42 -56 39 -3 0 -35 32 -70 71 -35 40 -91 101 -126 135 -73
75 -182 149 -193 132 -8 -14 -35 -1 -64 31 -13 15 -16 23 -8 28 16 10 53 92
53 118 0 17 -7 23 -35 26 -19 2 -35 3 -35 2 0 -1 7 -18 16 -39 21 -51 13 -71
-21 -49 -14 9 -28 26 -31 38 -5 20 -10 21 -69 16 l-64 -5 -6 36 c-6 33 -11 38
-44 47 -23 5 -45 6 -55 0 -11 -6 -31 1 -71 27 -30 19 -60 35 -65 35 -5 0 -7 7
-4 15 4 8 -1 17 -10 21 -9 3 -14 9 -11 13 2 4 -9 15 -26 25 -16 9 -29 13 -29
7 0 -13 -82 11 -87 26 -2 6 10 14 26 18 17 4 31 10 31 14 0 13 89 4 135 -14
45 -16 59 -34 49 -60 -5 -12 -10 -10 -26 8 -16 18 -16 16 2 -11 44 -66 104
-80 81 -19 l-10 26 47 -5 c63 -7 142 -33 142 -46 0 -6 3 -9 6 -5 10 9 -19 65
-31 61 -6 -3 -37 9 -68 26 -31 16 -59 30 -62 30 -3 0 -26 23 -50 51 -36 42
-52 53 -81 56 -33 3 -36 2 -24 -12 25 -30 -5 -35 -102 -15 -54 11 -65 16 -57
27 9 10 5 13 -17 13 -24 0 -31 6 -40 35 -8 25 -8 36 0 40 8 3 7 7 -1 11 -7 3
-29 17 -50 31 -57 39 -102 51 -204 56 -52 3 -106 10 -121 16 -15 6 -68 12
-117 13 -49 1 -87 6 -85 10 5 8 -48 38 -68 38 -7 0 2 -9 20 -20 17 -11 32 -22
32 -24 0 -4 -42 5 -105 25 -34 10 -37 13 -20 19 11 4 28 6 38 4 10 -2 15 1 12
7 -9 14 -83 11 -88 -3 -2 -9 -25 -13 -66 -13 -48 0 -66 4 -76 18 -10 14 -31
18 -104 21 -51 2 -95 7 -98 10 -13 12 -191 3 -258 -13z m933 -198 c2 -15 11
-24 25 -25 12 0 34 -2 49 -3 14 -1 44 4 65 12 64 23 91 25 128 7 39 -18 56
-57 36 -83 -6 -9 -14 -24 -17 -33 -10 -29 -39 -21 -114 31 -34 24 -35 24 -15
2 l20 -23 -40 3 c-22 1 -45 6 -51 11 -6 4 -29 10 -50 13 -21 2 -48 6 -59 9
-11 2 -33 5 -50 6 l-30 2 30 13 c34 16 33 17 -13 19 -22 2 -31 -2 -28 -10 4
-9 -8 -11 -47 -7 -64 7 -69 11 -38 32 43 29 104 48 151 47 39 -1 45 -4 48 -23z
m-1041 -9 c55 -10 128 -43 117 -53 -12 -12 -87 -24 -81 -14 3 5 1 15 -5 23 -8
13 -9 12 -5 -2 3 -9 0 -21 -7 -27 -11 -9 -76 -25 -76 -19 0 2 -3 27 -7 57 -5
46 -3 53 10 48 9 -3 33 -9 54 -13z m436 -8 c4 -11 -2 -14 -25 -14 -28 1 -29 2
-13 15 24 17 32 16 38 -1z m-859 -138 c-26 -87 -30 -93 -83 -117 -28 -14 -53
-22 -56 -19 -7 7 23 95 42 125 11 16 21 21 37 17 15 -3 29 3 46 20 13 15 25
26 26 26 2 0 -4 -23 -12 -52z m-762 -619 c-20 -23 -23 -20 -29 28 l-5 38 25
-23 c23 -22 24 -25 9 -43z m3843 -387 c-3 -3 -11 0 -18 7 -9 10 -8 11 6 5 10
-3 15 -9 12 -12z m121 -324 c-14 -10 -15 -7 -8 27 6 30 6 30 12 5 4 -14 2 -28
-4 -32z m-4568 -389 c-2 7 3 16 10 18 15 6 16 -23 1 -32 -6 -4 -8 -13 -5 -21
5 -12 -33 -59 -40 -51 -6 6 -11 82 -7 95 4 10 10 9 25 -5 13 -12 18 -13 16 -4z
m445 -930 c22 -40 22 -53 -3 -46 -10 3 -18 0 -17 -5 1 -6 -4 -13 -12 -16 -10
-3 -13 1 -9 16 3 11 2 26 -3 33 -8 13 6 49 19 49 4 0 15 -14 25 -31z m3937
-486 c0 -5 -12 -17 -27 -27 -25 -18 -25 -11 0 22 10 13 27 16 27 5z m-3405
-563 c-22 -25 -27 -25 -41 -2 -10 16 -8 18 24 20 36 3 36 3 17 -18z m685 -411
c0 -5 11 -7 24 -5 45 8 37 -8 -20 -40 -61 -35 -70 -34 -133 4 l-32 20 63 24
c61 24 98 23 98 -3z m1503 -42 c10 -6 20 -26 23 -42 2 -17 7 -36 9 -43 6 -15
-36 -33 -64 -27 -12 2 -21 0 -21 -5 0 -13 -78 -52 -90 -45 -5 3 -11 1 -14 -4
-5 -8 -62 -22 -93 -23 -5 0 -19 -4 -33 -9 l-25 -9 23 16 c31 23 27 35 -7 23
-18 -6 -28 -16 -25 -23 4 -9 -9 -15 -38 -19 -23 -3 -44 -4 -46 -2 -3 2 5 16
17 31 48 61 151 116 151 80 0 -40 84 1 120 59 31 51 78 68 113 42z m-1095
-121 c24 -23 48 -49 53 -59 9 -16 7 -17 -18 -13 -15 2 -34 5 -41 5 -9 1 -11 9
-8 24 6 22 6 22 -5 1 -10 -19 -15 -20 -45 -11 -38 12 -40 19 -19 71 18 41 19
41 83 -18z m342 -91 c0 -10 -10 -15 -27 -15 -26 0 -26 1 -7 15 25 19 34 19 34
0z"/>
<path d="M3518 4882 c-10 -2 -18 -7 -18 -12 0 -16 32 -20 53 -5 12 8 19 15 17
16 -3 0 -12 2 -20 3 -8 1 -23 1 -32 -2z"/>
<path d="M3842 4726 c7 -8 15 -12 17 -11 5 6 -10 25 -20 25 -5 0 -4 -6 3 -14z"/>
<path d="M4036 4591 c-4 -5 -2 -12 3 -15 5 -4 12 -2 15 3 4 5 2 12 -3 15 -5 4
-12 2 -15 -3z"/>
<path d="M3846 4581 c-7 -10 6 -26 31 -39 17 -9 22 -9 27 4 3 9 6 17 6 19 0 8
-60 23 -64 16z"/>
<path d="M4117 4508 c6 -11 41 -10 47 1 3 4 -8 8 -23 7 -16 -1 -27 -4 -24 -8z"/>
<path d="M4150 4472 c0 -4 20 -26 44 -49 l45 -43 -16 45 c-8 25 -18 45 -21 46
-4 0 -17 2 -29 5 -13 2 -23 1 -23 -4z"/>
<path d="M4275 4345 c17 -14 45 -40 64 -58 l35 -32 -19 30 c-20 33 -34 45 -80
70 l-30 17 30 -27z"/>
<path d="M4237 4294 c-22 -22 1 -43 57 -50 24 -3 27 -2 16 11 -10 12 -9 15 5
15 9 0 15 6 13 13 -5 13 -79 22 -91 11z"/>
<path d="M4487 4248 c15 -24 29 -45 31 -48 4 -6 22 22 22 37 0 7 -18 22 -40
33 l-41 21 28 -43z"/>
<path d="M4401 4211 c23 -32 49 -41 49 -18 0 12 -17 23 -64 45 -5 3 2 -10 15
-27z"/>
<path d="M4445 4150 c10 -11 20 -20 23 -20 3 0 -3 9 -13 20 -10 11 -20 20 -23
20 -3 0 3 -9 13 -20z"/>
<path d="M4480 4126 c0 -2 7 -6 15 -10 8 -3 15 -1 15 4 0 6 -7 10 -15 10 -8 0
-15 -2 -15 -4z"/>
<path d="M4596 4013 c-4 -9 -2 -21 4 -27 7 -7 10 -2 10 17 0 31 -5 34 -14 10z"/>
<path d="M4570 3940 c0 -5 5 -10 11 -10 5 0 7 5 4 10 -3 6 -8 10 -11 10 -2 0
-4 -4 -4 -10z"/>
<path d="M4600 3901 c6 -12 15 -21 20 -21 18 0 11 19 -11 30 -19 11 -20 10 -9
-9z"/>
<path d="M4710 3879 c-11 -20 -12 -20 -31 -3 -18 16 -19 16 -13 1 3 -9 10 -18
15 -18 20 -3 24 -5 37 -12 9 -6 12 0 10 22 -3 37 -4 37 -18 10z"/>
<path d="M4864 3625 c-4 -10 2 -25 15 -38 l22 -22 -3 34 c-3 37 -24 53 -34 26z"/>
<path d="M4809 3617 c6 -8 9 -16 6 -18 -2 -3 5 -11 17 -18 20 -13 20 -12 -1
18 -12 17 -25 31 -28 31 -3 0 0 -6 6 -13z"/>
<path d="M4860 3512 c0 -13 -4 -20 -10 -17 -17 11 -11 -11 9 -29 17 -15 19
-15 25 -1 3 9 -1 28 -9 43 -14 26 -14 26 -15 4z"/>
<path d="M4920 3475 c0 -15 18 -40 24 -34 3 3 -1 14 -9 25 -8 10 -14 15 -15 9z"/>
<path d="M4617 2613 c-4 -3 -7 -11 -7 -17 0 -6 5 -5 12 2 6 6 9 14 7 17 -3 3
-9 2 -12 -2z"/>
<path d="M4658 2542 c-17 -7 -16 -8 2 -20 17 -11 20 -10 20 8 0 11 -1 20 -2
19 -2 0 -11 -4 -20 -7z"/>
<path d="M5066 2533 c-3 -3 -3 -10 0 -14 7 -12 34 -11 34 0 0 11 -26 22 -34
14z"/>
<path d="M4590 2510 c0 -5 10 -10 23 -10 18 0 19 2 7 10 -19 13 -30 13 -30 0z"/>
<path d="M5010 2490 c0 -22 7 -25 29 -11 11 7 9 11 -8 20 -18 10 -21 9 -21 -9z"/>
<path d="M5057 2395 c-4 -8 -2 -17 3 -20 6 -4 10 3 10 14 0 25 -6 27 -13 6z"/>
<path d="M4670 2181 c0 -6 4 -13 10 -16 6 -3 7 1 4 9 -7 18 -14 21 -14 7z"/>
<path d="M4639 2085 c-1 -6 -2 -31 -4 -56 -1 -26 -6 -64 -9 -85 -7 -34 -6 -36
8 -25 10 9 16 30 16 58 0 24 5 54 11 65 9 16 7 24 -5 36 -9 9 -17 12 -17 7z"/>
<path d="M4452 1820 c0 -14 2 -19 5 -12 2 6 2 18 0 25 -3 6 -5 1 -5 -13z"/>
<path d="M4469 1769 c-10 -19 -9 -20 13 -14 29 9 31 11 23 24 -10 17 -23 13
-36 -10z"/>
<path d="M4387 1732 c-18 -20 -13 -32 13 -32 10 0 16 7 15 20 -2 29 -10 32
-28 12z"/>
<path d="M4438 1687 c-3 -19 -2 -25 4 -19 6 6 8 18 6 28 -3 14 -5 12 -10 -9z"/>
<path d="M4305 1520 c-19 -7 -19 -7 3 -14 15 -5 21 -13 18 -22 -3 -8 -1 -14 4
-14 11 0 12 17 2 41 -5 11 -13 14 -27 9z"/>
<path d="M4418 1489 c5 -11 11 -20 15 -20 4 1 12 1 19 1 6 0 3 9 -7 20 -23 26
-36 26 -27 -1z"/>
<path d="M4330 1418 c0 -17 2 -18 15 -8 8 7 15 14 15 15 0 2 -7 5 -15 9 -10 4
-15 -1 -15 -16z"/>
<path d="M4240 1392 c0 -5 7 -9 15 -9 8 0 15 4 15 9 0 4 -7 8 -15 8 -8 0 -15
-4 -15 -8z"/>
<path d="M4076 1308 c-3 -7 -6 -23 -9 -35 -5 -22 -4 -21 29 5 23 18 29 29 21
34 -18 12 -37 10 -41 -4z"/>
<path d="M4191 1284 c0 -11 3 -14 6 -6 3 7 2 16 -1 19 -3 4 -6 -2 -5 -13z"/>
<path d="M4181 1247 c-1 -13 -6 -17 -20 -12 -14 4 -23 -2 -34 -25 -14 -27 -14
-29 1 -20 40 23 64 48 59 61 -4 10 -6 9 -6 -4z"/>
<path d="M4080 1161 c-8 -6 -18 -7 -24 -4 -5 3 -6 1 -3 -4 4 -6 -5 -28 -19
-49 l-25 -39 36 37 c26 28 35 33 36 20 2 -60 23 -87 44 -58 8 10 13 28 10 40
-2 12 -4 23 -4 26 -1 3 -6 -2 -11 -10 -8 -13 -10 -12 -10 3 0 9 -5 17 -11 17
-6 0 -9 7 -5 15 6 17 6 18 -14 6z"/>
<path d="M3900 1013 c0 -21 3 -24 9 -14 5 8 7 20 4 28 -8 21 -13 15 -13 -14z"/>
<path d="M3820 960 c0 -5 5 -10 10 -10 6 0 10 5 10 10 0 6 -4 10 -10 10 -5 0
-10 -4 -10 -10z"/>
<path d="M3670 869 c0 -5 5 -7 10 -4 6 3 10 8 10 11 0 2 -4 4 -10 4 -5 0 -10
-5 -10 -11z"/>
<path d="M3807 822 c-22 -24 -21 -32 2 -32 27 0 45 24 28 39 -11 8 -18 7 -30
-7z"/>
<path d="M3452 748 c-15 -15 -16 -38 -2 -38 12 0 23 25 18 40 -2 7 -7 7 -16
-2z"/>
</g>
</svg>
